<svg xmlns="http://www.w3.org/2000/svg" xmlns:xlink="http://www.w3.org/1999/xlink" width="500" zoomAndPan="magnify" viewBox="0 0 375 374.999991" height="500" preserveAspectRatio="xMidYMid meet" version="1.0"><defs><clipPath id="28253649f3"><path d="M 0.183594 0 L 375 0 L 375 375 L 0.183594 375 Z M 0.183594 0 " clip-rule="nonzero"/></clipPath></defs><g clip-path="url(#28253649f3)"><path fill="#fff" d="M 175.402344 0.292969 C 174.597656 0.367188 172.03125 0.621094 169.722656 0.804688 C 116.464844 5.601562 66.578125 34.3125 34.980469 78.433594 C 17.386719 102.96875 6.136719 130.796875 1.882812 160.273438 C 0.378906 170.5625 0.195312 173.605469 0.195312 187.554688 C 0.195312 201.507812 0.378906 204.546875 1.882812 214.835938 C 12.074219 285.175781 62.179688 344.277344 130.136719 366.175781 C 142.304688 370.09375 155.132812 372.765625 169.722656 374.378906 C 175.402344 375 199.960938 375 205.644531 374.378906 C 230.824219 371.59375 252.15625 365.371094 273.199219 354.640625 C 276.421875 352.992188 277.046875 352.554688 276.605469 352.1875 C 276.3125 351.96875 262.566406 333.550781 246.074219 311.285156 L 216.089844 270.824219 L 178.519531 215.273438 C 157.847656 184.734375 140.839844 159.761719 140.691406 159.761719 C 140.546875 159.726562 140.398438 184.40625 140.324219 214.542969 C 140.214844 267.308594 140.179688 269.433594 139.519531 270.675781 C 138.566406 272.472656 137.832031 273.203125 136.292969 274.007812 C 135.121094 274.59375 134.09375 274.703125 128.558594 274.703125 L 122.21875 274.703125 L 120.53125 273.644531 C 119.433594 272.945312 118.625 272.03125 118.078125 270.96875 L 117.308594 269.320312 L 117.378906 195.902344 L 117.492188 122.449219 L 118.625 121.019531 C 119.214844 120.25 120.460938 119.261719 121.339844 118.789062 C 122.84375 118.054688 123.429688 117.980469 129.769531 117.980469 C 137.246094 117.980469 138.492188 118.273438 140.4375 120.398438 C 140.984375 120.984375 161.328125 151.597656 185.667969 188.46875 C 210.003906 225.34375 243.289062 275.691406 259.636719 300.410156 L 289.324219 345.339844 L 290.828125 344.351562 C 304.132812 335.710938 318.207031 323.40625 329.351562 310.589844 C 353.066406 283.382812 368.351562 250.207031 373.484375 214.835938 C 374.984375 204.546875 375.167969 201.507812 375.167969 187.554688 C 375.167969 173.605469 374.984375 170.5625 373.484375 160.273438 C 363.292969 89.933594 313.1875 30.832031 245.230469 8.933594 C 233.246094 5.054688 220.488281 2.378906 206.195312 0.769531 C 202.675781 0.402344 178.445312 0 175.402344 0.292969 Z M 252.15625 113.585938 C 253.917969 114.464844 255.347656 116.152344 255.859375 117.910156 C 256.152344 118.859375 256.226562 139.21875 256.152344 185.101562 L 256.042969 250.941406 L 244.421875 233.144531 L 232.769531 215.347656 L 232.769531 167.488281 C 232.769531 136.546875 232.914062 119.152344 233.132812 118.3125 C 233.722656 116.261719 235.003906 114.648438 236.761719 113.699219 C 238.265625 112.929688 238.816406 112.855469 244.570312 112.855469 C 249.996094 112.855469 250.949219 112.929688 252.15625 113.585938 Z M 252.15625 113.585938 " fill-opacity="1" fill-rule="nonzero"/></g><path fill="#fff" d="M 287.492188 346.144531 C 286.210938 346.949219 285.804688 347.5 286.941406 346.878906 C 287.75 346.402344 289.070312 345.414062 288.847656 345.375 C 288.738281 345.375 288.117188 345.742188 287.492188 346.144531 Z M 284.964844 347.792969 C 284.304688 348.304688 284.304688 348.34375 285.109375 347.941406 C 285.550781 347.71875 285.917969 347.464844 285.917969 347.390625 C 285.917969 347.097656 285.734375 347.171875 284.964844 347.792969 Z M 283.128906 348.890625 C 282.472656 349.40625 282.472656 349.441406 283.277344 349.039062 C 283.71875 348.820312 284.082031 348.5625 284.082031 348.488281 C 284.082031 348.195312 283.898438 348.269531 283.128906 348.890625 Z M 281.296875 349.988281 C 280.636719 350.503906 280.636719 350.539062 281.445312 350.136719 C 281.882812 349.917969 282.25 349.660156 282.25 349.585938 C 282.25 349.292969 282.066406 349.367188 281.296875 349.988281 Z M 278.511719 351.453125 C 277.121094 352.1875 277.191406 352.480469 278.585938 351.785156 C 279.207031 351.453125 279.683594 351.125 279.683594 351.050781 C 279.683594 350.796875 279.648438 350.832031 278.511719 351.453125 Z M 278.511719 351.453125 " fill-opacity="1" fill-rule="nonzero"/></svg>