<svg width="500" height="500" viewBox="0 0 500 500" fill="none" xmlns="http://www.w3.org/2000/svg">
<g clip-path="url(#clip0_1_2)">
<path d="M250 104.387C185.467 104.387 145.133 136.635 129 201.129C153.2 168.881 181.433 156.788 213.7 164.851C232.109 169.45 245.268 182.799 259.833 197.573C283.56 221.643 311.02 249.5 371 249.5C435.533 249.5 475.867 217.252 492 152.758C467.8 185.006 439.567 197.099 407.3 189.036C388.891 184.437 375.732 171.088 361.167 156.314C337.44 132.244 309.98 104.387 250 104.387ZM129 249.5C64.4673 249.5 24.1327 281.748 8 346.242C32.2 313.994 60.4327 301.901 92.7 309.964C111.109 314.563 124.268 327.912 138.833 342.686C162.56 366.756 190.02 394.613 250 394.613C314.533 394.613 354.867 362.365 371 297.871C346.8 330.119 318.567 342.212 286.3 334.149C267.891 329.55 254.732 316.201 240.167 301.427C216.44 277.357 188.98 249.5 129 249.5Z" fill="url(#paint0_linear_1_2)"/>
</g>
<defs>
<linearGradient id="paint0_linear_1_2" x1="-3434.05" y1="14369.6" x2="-2002.58" y2="30442.2" gradientUnits="userSpaceOnUse">
<stop stop-color="#2298BD"/>
<stop offset="1" stop-color="#0ED7B5"/>
</linearGradient>
<clipPath id="clip0_1_2">
<rect width="484" height="291" fill="white" transform="translate(8 104)"/>
</clipPath>
</defs>
</svg>
